<mxfile host="app.diagrams.net" modified="2023-09-22T03:24:30.767Z" agent="Mozilla/5.0 (Windows NT 10.0; Win64; x64) AppleWebKit/537.36 (KHTML, like Gecko) Chrome/116.0.0.0 Safari/537.36" version="21.8.0" etag="aQB_Afr-_qC4jjSrw4nL" type="github">
  <diagram name="第 1 页" id="BmVhrEr7t3YOvFSsZzM7">
    <mxGraphModel>
      <root>
        <mxCell id="0" />
        <mxCell id="1" parent="0" />
      </root>
    </mxGraphModel>
  </diagram>
</mxfile>
